<svg width="15" height="11" viewBox="0 0 15 11" fill="none" xmlns="http://www.w3.org/2000/svg">
<path d="M6 7.21875H5.99953C5.99953 6.87113 6.03094 7.03119 4.00617 3.31912C3.5925 2.56094 2.40797 2.55943 1.99359 3.31912C-0.0482814 7.06299 0.00046875 6.88209 0.00046875 7.21875H0C0 8.16793 1.3432 8.9375 3 8.9375C4.6568 8.9375 6 8.16793 6 7.21875ZM3 3.78125L4.6875 6.875H1.3125L3 3.78125ZM14.9995 7.21875C14.9995 6.87113 15.0309 7.03119 13.0062 3.31912C12.5925 2.56094 11.408 2.55943 10.9936 3.31912C8.95172 7.06299 9.00047 6.88209 9.00047 7.21875H9C9 8.16793 10.3432 8.9375 12 8.9375C13.6568 8.9375 15 8.16793 15 7.21875H14.9995ZM10.3125 6.875L12 3.78125L13.6875 6.875H10.3125ZM12.375 9.625H8.25V3.29248C8.80102 3.07141 9.21469 2.61615 9.33727 2.0625H12.375C12.5822 2.0625 12.75 1.90867 12.75 1.71875V1.03125C12.75 0.841328 12.5822 0.6875 12.375 0.6875H8.99156C8.64937 0.272422 8.11148 0 7.5 0C6.88852 0 6.35062 0.272422 6.00844 0.6875H2.625C2.41781 0.6875 2.25 0.841328 2.25 1.03125V1.71875C2.25 1.90867 2.41781 2.0625 2.625 2.0625H5.66273C5.78531 2.61594 6.19875 3.07141 6.75 3.29248V9.625H2.625C2.41781 9.625 2.25 9.77883 2.25 9.96875V10.6562C2.25 10.8462 2.41781 11 2.625 11H12.375C12.5822 11 12.75 10.8462 12.75 10.6562V9.96875C12.75 9.77883 12.5822 9.625 12.375 9.625Z" fill="#FFF6F6"/>
</svg>
