<svg width="85" height="85" viewBox="0 0 85 85" fill="none" xmlns="http://www.w3.org/2000/svg">
<path d="M85 8.1946V76.8054C85 81.4149 81.3951 85 76.8036 85H8.19643C3.66183 84.981 0 81.4528 0 76.7864V8.1946C0 3.62307 3.56696 0 8.19643 0H76.8225C81.3761 0 85 3.56617 85 8.1946ZM77.923 76.7864V8.1946C77.923 7.62553 77.4297 7.0944 76.8225 7.0944H75.058L54.1306 21.2453L42.5 11.7797L30.8884 21.2453L9.96094 7.07543H8.19643C7.58929 7.07543 7.09598 7.60656 7.09598 8.17563V76.7864C7.09598 77.3555 7.58929 77.8866 8.19643 77.8866H76.8225C77.4297 77.9056 77.923 77.3745 77.923 76.7864V76.7864ZM28.4978 29.2122V36.2308H14.5525V29.2122H28.4978ZM28.4978 43.3251V50.4006H14.5525V43.3251H28.4978ZM30.6038 15.3838L40.8493 7.0944H18.3661L30.6038 15.3838V15.3838ZM70.4475 29.2122V36.2308H33.26V29.2122H70.4475ZM70.4475 43.3251V50.4006H33.26V43.3251H70.4475ZM54.3962 15.3838L66.6339 7.0944H44.1696L54.3962 15.3838V15.3838ZM70.4475 57.476V64.5514H51.5882V57.476H70.4475V57.476Z" fill="#FFEFD7"/>
</svg>
