<svg width="15" height="15" viewBox="0 0 15 15" fill="none" xmlns="http://www.w3.org/2000/svg">
<path d="M12.9053 2.59328L11.3818 4.11702L12.1582 4.89353C12.4336 5.16898 12.4336 5.61438 12.1582 5.88689L11.6484 6.39676C11.9941 7.16156 12.1875 8.01133 12.1875 8.90506C12.1875 12.2719 9.45996 15 6.09375 15C2.72754 15 0 12.2749 0 8.90799C0 5.54112 2.72754 2.81305 6.09375 2.81305C6.9873 2.81305 7.83691 3.00645 8.60156 3.35222L9.11133 2.84235C9.38672 2.56691 9.83203 2.56691 10.1045 2.84235L10.8809 3.61887L12.4043 2.09514L12.9053 2.59328ZM14.6484 1.75816H13.9453C13.752 1.75816 13.5938 1.91639 13.5938 2.10979C13.5938 2.30318 13.752 2.46142 13.9453 2.46142H14.6484C14.8418 2.46142 15 2.30318 15 2.10979C15 1.91639 14.8418 1.75816 14.6484 1.75816ZM12.8906 0C12.6973 0 12.5391 0.158234 12.5391 0.351631V1.05489C12.5391 1.24829 12.6973 1.40652 12.8906 1.40652C13.084 1.40652 13.2422 1.24829 13.2422 1.05489V0.351631C13.2422 0.158234 13.084 0 12.8906 0ZM13.8838 1.61164L14.3818 1.1135C14.5195 0.975777 14.5195 0.753077 14.3818 0.615355C14.2441 0.477632 14.0215 0.477632 13.8838 0.615355L13.3857 1.1135C13.248 1.25122 13.248 1.47392 13.3857 1.61164C13.5264 1.74937 13.749 1.74937 13.8838 1.61164ZM11.8975 1.61164C12.0352 1.74937 12.2578 1.74937 12.3955 1.61164C12.5332 1.47392 12.5332 1.25122 12.3955 1.1135L11.8975 0.615355C11.7598 0.477632 11.5371 0.477632 11.3994 0.615355C11.2617 0.753077 11.2617 0.975777 11.3994 1.1135L11.8975 1.61164ZM13.8838 2.60793C13.7461 2.47021 13.5234 2.47021 13.3857 2.60793C13.248 2.74565 13.248 2.96835 13.3857 3.10608L13.8838 3.60422C14.0215 3.74194 14.2441 3.74194 14.3818 3.60422C14.5195 3.4665 14.5195 3.2438 14.3818 3.10608L13.8838 2.60793ZM3.28125 7.97031C3.28125 6.93593 4.12207 6.09494 5.15625 6.09494C5.41406 6.09494 5.625 5.88396 5.625 5.6261C5.625 5.36824 5.41406 5.15726 5.15625 5.15726C3.60645 5.15726 2.34375 6.4202 2.34375 7.97031C2.34375 8.22817 2.55469 8.43915 2.8125 8.43915C3.07031 8.43915 3.28125 8.22817 3.28125 7.97031Z" fill="#FF7272"/>
</svg>
