<svg width="12" height="12" viewBox="0 0 12 12" fill="none" xmlns="http://www.w3.org/2000/svg">
<path d="M6 0C2.68621 0 0 2.68621 0 6C0 9.31379 2.68621 12 6 12C9.31379 12 12 9.31379 12 6C12 2.68621 9.31379 0 6 0ZM6 10.4516C3.53976 10.4516 1.54839 8.46073 1.54839 6C1.54839 3.53976 3.53927 1.54839 6 1.54839C8.46024 1.54839 10.4516 3.53927 10.4516 6C10.4516 8.46024 8.46073 10.4516 6 10.4516ZM6 2.90323C4.28976 2.90323 2.90323 4.28976 2.90323 6C2.90323 7.71024 4.28976 9.09677 6 9.09677C7.71024 9.09677 9.09677 7.71024 9.09677 6C9.09677 4.28976 7.71024 2.90323 6 2.90323ZM6 7.54839C5.14621 7.54839 4.45161 6.85379 4.45161 6C4.45161 5.14621 5.14621 4.45161 6 4.45161C6.85379 4.45161 7.54839 5.14621 7.54839 6C7.54839 6.85379 6.85379 7.54839 6 7.54839Z" fill="white"/>
</svg>
