<svg width="32" height="51" viewBox="0 0 32 51" fill="none" xmlns="http://www.w3.org/2000/svg">
<path fill-rule="evenodd" clip-rule="evenodd" d="M16 3.18732C12.6052 3.18732 9.3495 4.53063 6.94903 6.92172C4.54857 9.31282 3.2 12.5558 3.2 15.9374C3.2 19.3189 4.54857 22.5619 6.94903 24.953C9.3495 27.3441 12.6052 28.6874 16 28.6874C19.3948 28.6874 22.6505 27.3441 25.051 24.953C27.4514 22.5619 28.8 19.3189 28.8 15.9374C28.8 12.5558 27.4514 9.31282 25.051 6.92172C22.6505 4.53063 19.3948 3.18732 16 3.18732V3.18732ZM1.26402e-09 15.9374C3.88995e-05 12.8532 0.898468 9.83525 2.58633 7.2496C4.27419 4.66395 6.67896 2.62167 9.50899 1.37045C12.339 0.119234 15.4727 -0.287172 18.5301 0.200526C21.5874 0.688223 24.437 2.04907 26.7332 4.11803C29.0294 6.18698 30.6737 8.87515 31.4666 11.8565C32.2594 14.8379 32.1668 17.9843 31.1999 20.9143C30.2331 23.8443 28.4335 26.4319 26.0195 28.3632C23.6055 30.2946 20.6808 31.4868 17.6 31.7952V38.25H24C24.4243 38.25 24.8313 38.4179 25.1314 38.7168C25.4314 39.0156 25.6 39.421 25.6 39.8437C25.6 40.2664 25.4314 40.6718 25.1314 40.9707C24.8313 41.2696 24.4243 41.4375 24 41.4375H17.6V49.4062C17.6 49.8289 17.4314 50.2343 17.1314 50.5332C16.8313 50.8321 16.4243 51 16 51C15.5757 51 15.1687 50.8321 14.8686 50.5332C14.5686 50.2343 14.4 49.8289 14.4 49.4062V41.4375H8C7.57565 41.4375 7.16869 41.2696 6.86863 40.9707C6.56857 40.6718 6.4 40.2664 6.4 39.8437C6.4 39.421 6.56857 39.0156 6.86863 38.7168C7.16869 38.4179 7.57565 38.25 8 38.25H14.4V31.7952C10.4534 31.4001 6.7948 29.5589 4.13401 26.6287C1.47323 23.6986 -4.98293e-05 19.8884 1.26402e-09 15.9374V15.9374Z" fill="black"/>
</svg>
