<svg width="25" height="25" viewBox="0 0 25 25" fill="none" xmlns="http://www.w3.org/2000/svg">
<path d="M12.3329 23.459C10.5864 23.4757 8.88667 22.8947 7.51576 21.8125C6.14486 20.7302 5.1852 19.2118 4.79601 17.5091C4.40683 15.8064 4.61151 14.0218 5.37611 12.4515C6.14071 10.8811 7.41925 9.61941 8.99958 8.87567C9.18443 8.79718 9.39241 8.79288 9.58034 8.86367C9.76828 8.93447 9.92173 9.07491 10.0089 9.25586C10.096 9.4368 10.1101 9.64434 10.0482 9.8354C9.98636 10.0265 9.8533 10.1864 9.67667 10.2819C8.43225 10.8922 7.43403 11.9098 6.84778 13.1657C6.26152 14.4216 6.1225 15.8403 6.45381 17.1861C6.78512 18.5319 7.56681 19.7239 8.66909 20.5642C9.77136 21.4044 11.1279 21.8423 12.5134 21.8052C13.8989 21.768 15.23 21.2581 16.2857 20.36C17.3414 19.4619 18.0581 18.2298 18.3168 16.8681C18.5756 15.5065 18.3608 14.0973 17.7081 12.8746C17.0554 11.6519 16.0041 10.6892 14.7288 10.1465C14.6241 10.114 14.5275 10.0599 14.4452 9.98766C14.3628 9.91542 14.2966 9.82667 14.2508 9.72717C14.205 9.62767 14.1806 9.51965 14.1792 9.41012C14.1779 9.30058 14.1995 9.19199 14.2429 9.09138C14.2862 8.99077 14.3502 8.9004 14.4307 8.82613C14.5112 8.75186 14.6065 8.69535 14.7102 8.66027C14.814 8.6252 14.924 8.61234 15.0331 8.62253C15.1421 8.63272 15.2479 8.66573 15.3433 8.71942C16.9664 9.41216 18.3003 10.6443 19.1194 12.2074C19.9385 13.7705 20.1925 15.5685 19.8384 17.2973C19.4843 19.0262 18.5438 20.5796 17.1762 21.6948C15.8085 22.81 14.0976 23.4185 12.3329 23.4173V23.459Z" fill="#FFEFD7"/>
<path d="M9.37507 10.417C9.27209 10.4184 9.16987 10.3991 9.07445 10.3604C8.97903 10.3216 8.89235 10.2641 8.81952 10.1913C8.7467 10.1185 8.6892 10.0318 8.65044 9.93636C8.61167 9.84094 8.59242 9.73873 8.59382 9.63574V5.60449C8.59382 5.39729 8.67613 5.19858 8.82264 5.05206C8.96916 4.90555 9.16787 4.82324 9.37507 4.82324H15.0626C15.2698 4.82324 15.4685 4.90555 15.615 5.05206C15.7615 5.19858 15.8438 5.39729 15.8438 5.60449V9.47949C15.8438 9.68669 15.7615 9.88541 15.615 10.0319C15.4685 10.1784 15.2698 10.2607 15.0626 10.2607C14.8554 10.2607 14.6567 10.1784 14.5101 10.0319C14.3636 9.88541 14.2813 9.68669 14.2813 9.47949V6.35449H10.1147V9.58366C10.1217 9.68713 10.1081 9.79097 10.0746 9.88912C10.0411 9.98727 9.98837 10.0778 9.91953 10.1553C9.85069 10.2329 9.76709 10.296 9.67361 10.3409C9.58013 10.3858 9.47865 10.4117 9.37507 10.417Z" fill="#FFEFD7"/>
<path d="M11.2288 18.5C9.28749 18.4918 7.35145 18.2964 5.44759 17.9167C5.26817 17.8851 5.10542 17.7918 4.98749 17.653C4.86956 17.5141 4.80386 17.3384 4.80176 17.1562C4.80253 17.0395 4.82913 16.9243 4.87964 16.819C4.93016 16.7138 5.00334 16.6209 5.09393 16.5473C5.18453 16.4736 5.29031 16.4209 5.40367 16.3929C5.51704 16.3649 5.6352 16.3624 5.74967 16.3854C6.13509 16.4687 15.1872 18.3125 18.6247 14.7604C18.7725 14.6166 18.9705 14.5361 19.1768 14.5361C19.383 14.5361 19.581 14.6166 19.7288 14.7604C19.8614 14.9014 19.9352 15.0877 19.9352 15.2812C19.9352 15.4748 19.8614 15.661 19.7288 15.8021V15.8542C17.708 17.9583 14.2393 18.5 11.2288 18.5Z" fill="#FFEFD7"/>
<path d="M14.1453 6.38574H10.4161C10.3131 6.38714 10.2109 6.36789 10.1155 6.32913C10.02 6.29036 9.93336 6.23287 9.86054 6.16004C9.78771 6.08722 9.73022 6.00053 9.69145 5.90511C9.65269 5.8097 9.63344 5.70748 9.63484 5.60449V2.63574C9.63484 2.42854 9.71715 2.22983 9.86366 2.08332C10.0102 1.9368 10.2089 1.85449 10.4161 1.85449H14.1973C14.2999 1.85449 14.4015 1.8747 14.4963 1.91396C14.5911 1.95322 14.6772 2.01077 14.7498 2.08332C14.8223 2.15586 14.8799 2.24199 14.9191 2.33677C14.9584 2.43156 14.9786 2.53315 14.9786 2.63574V5.60449C14.9804 5.71207 14.9597 5.81884 14.9177 5.91793C14.8758 6.01701 14.8136 6.10622 14.7351 6.17981C14.6566 6.2534 14.5635 6.30974 14.462 6.34521C14.3604 6.38067 14.2525 6.39448 14.1453 6.38574ZM11.1453 4.82324H13.364V3.41699H11.1453V4.82324Z" fill="#FFEFD7"/>
</svg>
