<svg width="54" height="54" viewBox="0 0 54 54" fill="none" xmlns="http://www.w3.org/2000/svg">
<g filter="url(#filter0_d_284_3346)">
<path d="M31.0394 3.01875C29.852 -1.00625 24.148 -1.00625 22.9606 3.01875L22.6731 3.99625C22.4957 4.59883 22.1857 5.15407 21.7658 5.62124C21.3458 6.0884 20.8267 6.45565 20.2463 6.69606C19.666 6.93646 19.0392 7.04392 18.4119 7.01056C17.7847 6.9772 17.1728 6.80386 16.6212 6.50325L15.73 6.0145C12.0414 4.00775 8.00775 8.04138 10.0174 11.7271L10.5033 12.6212C11.7855 14.9787 10.5694 17.9141 7.99625 18.6731L7.01875 18.9606C2.99375 20.148 2.99375 25.852 7.01875 27.0394L7.99625 27.3269C8.59883 27.5043 9.15407 27.8143 9.62124 28.2342C10.0884 28.6542 10.4557 29.1733 10.6961 29.7537C10.9365 30.334 11.0439 30.9608 11.0106 31.5881C10.9772 32.2153 10.8039 32.8272 10.5033 33.3787L10.0145 34.27C8.00775 37.9586 12.0414 41.9922 15.7271 39.9826L16.6212 39.4967C17.1728 39.1961 17.7847 39.0228 18.4119 38.9894C19.0392 38.9561 19.666 39.0635 20.2463 39.3039C20.8267 39.5443 21.3458 39.9116 21.7658 40.3788C22.1857 40.8459 22.4957 41.4012 22.6731 42.0037L22.9606 42.9813C24.148 47.0062 29.852 47.0062 31.0394 42.9813L31.3269 42.0037C31.5043 41.4012 31.8143 40.8459 32.2342 40.3788C32.6542 39.9116 33.1733 39.5443 33.7537 39.3039C34.334 39.0635 34.9608 38.9561 35.5881 38.9894C36.2153 39.0228 36.8272 39.1961 37.3787 39.4967L38.27 39.9855C41.9586 41.9922 45.9922 37.9586 43.9826 34.2729L43.4967 33.3787C43.1961 32.8272 43.0228 32.2153 42.9894 31.5881C42.9561 30.9608 43.0635 30.334 43.3039 29.7537C43.5443 29.1733 43.9116 28.6542 44.3788 28.2342C44.8459 27.8143 45.4012 27.5043 46.0037 27.3269L46.9813 27.0394C51.0062 25.852 51.0062 20.148 46.9813 18.9606L46.0037 18.6731C45.4012 18.4957 44.8459 18.1857 44.3788 17.7658C43.9116 17.3458 43.5443 16.8267 43.3039 16.2463C43.0635 15.666 42.9561 15.0392 42.9894 14.4119C43.0228 13.7847 43.1961 13.1728 43.4967 12.6212L43.9855 11.73C45.9922 8.04138 41.9586 4.00775 38.2729 6.01737L37.3787 6.50325C36.8272 6.80386 36.2153 6.9772 35.5881 7.01056C34.9608 7.04392 34.334 6.93646 33.7537 6.69606C33.1733 6.45565 32.6542 6.0884 32.2342 5.62124C31.8143 5.15407 31.5043 4.59883 31.3269 3.99625L31.0394 3.01875ZM27 31.4238C24.7659 31.4238 22.6233 30.5363 21.0435 28.9565C19.4638 27.3767 18.5763 25.2341 18.5763 23C18.5763 20.7659 19.4638 18.6233 21.0435 17.0435C22.6233 15.4638 24.7659 14.5763 27 14.5763C29.2334 14.5763 31.3752 15.4634 32.9545 17.0427C34.5337 18.6219 35.4209 20.7638 35.4209 22.9971C35.4209 25.2305 34.5337 27.3724 32.9545 28.9516C31.3752 30.5308 29.2334 31.418 27 31.418V31.4238Z" fill="#FFEFD7"/>
</g>
<defs>
<filter id="filter0_d_284_3346" x="0" y="0" width="54" height="54" filterUnits="userSpaceOnUse" color-interpolation-filters="sRGB">
<feFlood flood-opacity="0" result="BackgroundImageFix"/>
<feColorMatrix in="SourceAlpha" type="matrix" values="0 0 0 0 0 0 0 0 0 0 0 0 0 0 0 0 0 0 127 0" result="hardAlpha"/>
<feOffset dy="4"/>
<feGaussianBlur stdDeviation="2"/>
<feComposite in2="hardAlpha" operator="out"/>
<feColorMatrix type="matrix" values="0 0 0 0 0 0 0 0 0 0 0 0 0 0 0 0 0 0 0.25 0"/>
<feBlend mode="normal" in2="BackgroundImageFix" result="effect1_dropShadow_284_3346"/>
<feBlend mode="normal" in="SourceGraphic" in2="effect1_dropShadow_284_3346" result="shape"/>
</filter>
</defs>
</svg>
