<svg width="149" height="149" viewBox="0 0 149 149" fill="none" xmlns="http://www.w3.org/2000/svg">
<circle cx="74.5" cy="74.5" r="74.5" fill="#250F3F"/>
<path d="M31.3571 50.7755H118.643C120.497 50.7755 122 49.405 122 47.7143V40.0612C122 38.3705 120.497 37 118.643 37H31.3571C29.503 37 28 38.3705 28 40.0612V47.7143C28 49.405 29.503 50.7755 31.3571 50.7755ZM31.3571 81.3878H118.643C120.497 81.3878 122 80.0173 122 78.3265V70.6735C122 68.9827 120.497 67.6122 118.643 67.6122H31.3571C29.503 67.6122 28 68.9827 28 70.6735V78.3265C28 80.0173 29.503 81.3878 31.3571 81.3878ZM31.3571 112H118.643C120.497 112 122 110.63 122 108.939V101.286C122 99.595 120.497 98.2245 118.643 98.2245H31.3571C29.503 98.2245 28 99.595 28 101.286V108.939C28 110.63 29.503 112 31.3571 112Z" fill="white"/>
</svg>
