<svg width="17" height="17" viewBox="0 0 17 17" fill="none" xmlns="http://www.w3.org/2000/svg">
<path fill-rule="evenodd" clip-rule="evenodd" d="M14.3784 2.62217C12.8082 1.05216 10.7208 0.1875 8.5 0.1875C6.27924 0.1875 4.19183 1.05216 2.62164 2.62217C1.05261 4.19219 0.1875 6.27964 0.1875 8.5C0.1875 10.7203 1.05261 12.8078 2.62164 14.3778C4.19183 15.9478 6.27924 16.8125 8.5 16.8125C10.7208 16.8125 12.8082 15.9478 14.3784 14.3778C15.9474 12.8078 16.8125 10.7203 16.8125 8.5C16.8125 6.27964 15.9474 4.19219 14.3784 2.62217ZM9.53906 12.6562C9.53906 13.2301 9.07404 13.6953 8.5 13.6953C7.92596 13.6953 7.46094 13.2301 7.46094 12.6562V7.46094C7.46094 6.88707 7.92596 6.42188 8.5 6.42188C9.07404 6.42188 9.53906 6.88707 9.53906 7.46094V12.6562ZM7.46094 4.34375C7.46094 4.91761 7.92596 5.38281 8.5 5.38281C9.07404 5.38281 9.53906 4.91761 9.53906 4.34375C9.53906 3.76989 9.07404 3.30469 8.5 3.30469C7.92596 3.30469 7.46094 3.76989 7.46094 4.34375Z" fill="#FFEFD7"/>
</svg>
