<svg width="38" height="27" viewBox="0 0 38 27" fill="none" xmlns="http://www.w3.org/2000/svg">
<path fill-rule="evenodd" clip-rule="evenodd" d="M11.125 24.1875C11.125 23.8394 11.2633 23.5056 11.5094 23.2594C11.7556 23.0133 12.0894 22.875 12.4375 22.875H36.0625C36.4106 22.875 36.7444 23.0133 36.9906 23.2594C37.2367 23.5056 37.375 23.8394 37.375 24.1875C37.375 24.5356 37.2367 24.8694 36.9906 25.1156C36.7444 25.3617 36.4106 25.5 36.0625 25.5H12.4375C12.0894 25.5 11.7556 25.3617 11.5094 25.1156C11.2633 24.8694 11.125 24.5356 11.125 24.1875ZM11.125 13.6875C11.125 13.3394 11.2633 13.0056 11.5094 12.7594C11.7556 12.5133 12.0894 12.375 12.4375 12.375H36.0625C36.4106 12.375 36.7444 12.5133 36.9906 12.7594C37.2367 13.0056 37.375 13.3394 37.375 13.6875C37.375 14.0356 37.2367 14.3694 36.9906 14.6156C36.7444 14.8617 36.4106 15 36.0625 15H12.4375C12.0894 15 11.7556 14.8617 11.5094 14.6156C11.2633 14.3694 11.125 14.0356 11.125 13.6875ZM11.125 3.1875C11.125 2.8394 11.2633 2.50556 11.5094 2.25942C11.7556 2.01328 12.0894 1.875 12.4375 1.875H36.0625C36.4106 1.875 36.7444 2.01328 36.9906 2.25942C37.2367 2.50556 37.375 2.8394 37.375 3.1875C37.375 3.5356 37.2367 3.86944 36.9906 4.11558C36.7444 4.36172 36.4106 4.5 36.0625 4.5H12.4375C12.0894 4.5 11.7556 4.36172 11.5094 4.11558C11.2633 3.86944 11.125 3.5356 11.125 3.1875ZM3.25 5.8125C3.94619 5.8125 4.61387 5.53594 5.10616 5.04365C5.59844 4.55137 5.875 3.88369 5.875 3.1875C5.875 2.49131 5.59844 1.82363 5.10616 1.33134C4.61387 0.839062 3.94619 0.5625 3.25 0.5625C2.55381 0.5625 1.88613 0.839062 1.39384 1.33134C0.901562 1.82363 0.625 2.49131 0.625 3.1875C0.625 3.88369 0.901562 4.55137 1.39384 5.04365C1.88613 5.53594 2.55381 5.8125 3.25 5.8125ZM3.25 16.3125C3.94619 16.3125 4.61387 16.0359 5.10616 15.5437C5.59844 15.0514 5.875 14.3837 5.875 13.6875C5.875 12.9913 5.59844 12.3236 5.10616 11.8313C4.61387 11.3391 3.94619 11.0625 3.25 11.0625C2.55381 11.0625 1.88613 11.3391 1.39384 11.8313C0.901562 12.3236 0.625 12.9913 0.625 13.6875C0.625 14.3837 0.901562 15.0514 1.39384 15.5437C1.88613 16.0359 2.55381 16.3125 3.25 16.3125ZM3.25 26.8125C3.94619 26.8125 4.61387 26.5359 5.10616 26.0437C5.59844 25.5514 5.875 24.8837 5.875 24.1875C5.875 23.4913 5.59844 22.8236 5.10616 22.3313C4.61387 21.8391 3.94619 21.5625 3.25 21.5625C2.55381 21.5625 1.88613 21.8391 1.39384 22.3313C0.901562 22.8236 0.625 23.4913 0.625 24.1875C0.625 24.8837 0.901562 25.5514 1.39384 26.0437C1.88613 26.5359 2.55381 26.8125 3.25 26.8125Z" fill="black"/>
</svg>
