<svg width="526" height="192" viewBox="0 0 526 192" fill="none" xmlns="http://www.w3.org/2000/svg">
<g filter="url(#filter0_d_279_3325)">
<g filter="url(#filter1_d_279_3325)">
<path d="M47.2 144.14C41.348 144.14 36.256 143.152 31.924 141.176C27.592 139.2 24.248 136.426 21.892 132.854C19.536 129.282 18.358 125.064 18.358 120.2H35.458C35.458 123.012 36.522 125.254 38.65 126.926C40.854 128.522 43.818 129.32 47.542 129.32C51.114 129.32 53.888 128.522 55.864 126.926C57.916 125.33 58.942 123.126 58.942 120.314C58.942 117.882 58.182 115.792 56.662 114.044C55.142 112.296 53.014 111.118 50.278 110.51L41.842 108.572C34.774 106.9 29.264 103.822 25.312 99.338C21.436 94.778 19.498 89.23 19.498 82.694C19.498 77.83 20.6 73.612 22.804 70.04C25.084 66.392 28.276 63.58 32.38 61.604C36.484 59.628 41.348 58.64 46.972 58.64C55.484 58.64 62.21 60.768 67.15 65.024C72.166 69.204 74.674 74.866 74.674 82.01H57.574C57.574 79.35 56.624 77.26 54.724 75.74C52.9 74.22 50.24 73.46 46.744 73.46C43.476 73.46 40.968 74.22 39.22 75.74C37.472 77.184 36.598 79.274 36.598 82.01C36.598 84.442 37.282 86.532 38.65 88.28C40.094 89.952 42.108 91.092 44.692 91.7L53.584 93.752C60.956 95.424 66.542 98.464 70.342 102.872C74.142 107.204 76.042 112.752 76.042 119.516C76.042 124.38 74.826 128.674 72.394 132.398C70.038 136.122 66.694 139.01 62.362 141.062C58.106 143.114 53.052 144.14 47.2 144.14ZM119.431 144.14C113.883 144.14 109.019 143.114 104.839 141.062C100.659 138.934 97.3915 136.008 95.0355 132.284C92.7555 128.484 91.6155 124.076 91.6155 119.06V83.72C91.6155 78.628 92.7555 74.22 95.0355 70.496C97.3915 66.772 100.659 63.884 104.839 61.832C109.019 59.704 113.883 58.64 119.431 58.64C125.055 58.64 129.919 59.704 134.023 61.832C138.203 63.884 141.433 66.772 143.713 70.496C146.069 74.22 147.247 78.628 147.247 83.72H130.147C130.147 80.376 129.197 77.83 127.297 76.082C125.473 74.334 122.851 73.46 119.431 73.46C116.011 73.46 113.351 74.334 111.451 76.082C109.627 77.83 108.715 80.376 108.715 83.72V119.06C108.715 122.328 109.627 124.874 111.451 126.698C113.351 128.446 116.011 129.32 119.431 129.32C122.851 129.32 125.473 128.446 127.297 126.698C129.197 124.874 130.147 122.328 130.147 119.06H147.247C147.247 124.076 146.069 128.484 143.713 132.284C141.433 136.008 138.203 138.934 134.023 141.062C129.919 143.114 125.055 144.14 119.431 144.14ZM165.671 143V128.18H182.201V74.6H165.671V59.78H215.831V74.6H199.301V128.18H215.831V143H165.671ZM387.837 113.36V97.4H424.317V113.36H387.837Z" fill="#B35A87"/>
<path d="M237.446 143V59.78H288.746V74.372H254.204V93.068H284.756V107.66H254.204V128.408H288.746V143H237.446ZM306.942 143V59.78H326.892L348.438 124.19C348.21 121.378 347.944 118.148 347.64 114.5C347.336 110.776 347.07 107.09 346.842 103.442C346.69 99.718 346.614 96.564 346.614 93.98V59.78H361.662V143H341.712L320.394 78.59C320.622 81.022 320.85 83.91 321.078 87.254C321.306 90.598 321.496 93.98 321.648 97.4C321.876 100.82 321.99 103.86 321.99 106.52V143H306.942Z" fill="#432FB3"/>
<path d="M31.924 141.176L36.0741 132.078L36.0741 132.078L31.924 141.176ZM21.892 132.854L13.5443 138.36L13.5443 138.36L21.892 132.854ZM18.358 120.2V110.2C12.8352 110.2 8.358 114.677 8.358 120.2H18.358ZM35.458 120.2H45.458C45.458 114.677 40.9808 110.2 35.458 110.2V120.2ZM38.65 126.926L32.4718 134.789C32.5746 134.87 32.679 134.949 32.7849 135.025L38.65 126.926ZM55.864 126.926L49.7246 119.032C49.6763 119.07 49.6283 119.108 49.5806 119.147L55.864 126.926ZM56.662 114.044L49.1159 120.606L56.662 114.044ZM50.278 110.51L48.039 120.256C48.0622 120.261 48.0855 120.267 48.1087 120.272L50.278 110.51ZM41.842 108.572L39.5399 118.303C39.561 118.308 39.582 118.313 39.603 118.318L41.842 108.572ZM25.312 99.338L17.6926 105.814C17.7313 105.86 17.7704 105.905 17.8099 105.95L25.312 99.338ZM22.804 70.04L14.324 64.74C14.3138 64.7563 14.3037 64.7726 14.2936 64.7889L22.804 70.04ZM32.38 61.604L28.0418 52.594L28.0418 52.594L32.38 61.604ZM67.15 65.024L60.6229 72.6001C60.6644 72.6358 60.7061 72.6712 60.7482 72.7062L67.15 65.024ZM74.674 82.01V92.01C80.1968 92.01 84.674 87.5328 84.674 82.01H74.674ZM57.574 82.01H47.574C47.574 87.5328 52.0512 92.01 57.574 92.01V82.01ZM54.724 75.74L48.3222 83.4222C48.3734 83.4649 48.425 83.507 48.4771 83.5487L54.724 75.74ZM39.22 75.74L45.5888 83.4496C45.6538 83.3959 45.7182 83.3414 45.7818 83.2861L39.22 75.74ZM38.65 88.28L30.7749 94.4431C30.8742 94.5699 30.9765 94.6943 31.0818 94.8162L38.65 88.28ZM44.692 91.7L42.4016 101.434C42.4155 101.437 42.4295 101.441 42.4434 101.444L44.692 91.7ZM53.584 93.752L51.3354 103.496C51.3476 103.499 51.3599 103.502 51.3721 103.504L53.584 93.752ZM70.342 102.872L62.7679 109.401C62.7866 109.423 62.8055 109.445 62.8244 109.466L70.342 102.872ZM72.394 132.398L64.0213 126.93C63.995 126.97 63.969 127.011 63.9432 127.052L72.394 132.398ZM62.362 141.062L58.0811 132.025C58.0604 132.034 58.0397 132.044 58.019 132.054L62.362 141.062ZM47.2 134.14C42.4597 134.14 38.8403 133.34 36.0741 132.078L27.7739 150.274C33.6717 152.964 40.2363 154.14 47.2 154.14V134.14ZM36.0741 132.078C33.2521 130.791 31.4476 129.179 30.2397 127.348L13.5443 138.36C17.0484 143.673 21.9319 147.609 27.7739 150.274L36.0741 132.078ZM30.2397 127.348C29.1039 125.626 28.358 123.382 28.358 120.2H8.358C8.358 126.746 9.96807 132.938 13.5443 138.36L30.2397 127.348ZM18.358 130.2H35.458V110.2H18.358V130.2ZM25.458 120.2C25.458 125.941 27.8234 131.137 32.4718 134.789L44.8282 119.063C44.8341 119.067 44.9048 119.124 45.0031 119.245C45.1035 119.368 45.2053 119.524 45.2903 119.703C45.4739 120.09 45.458 120.321 45.458 120.2H25.458ZM32.7849 135.025C37.2222 138.239 42.4722 139.32 47.542 139.32V119.32C46.3783 119.32 45.6025 119.194 45.1257 119.065C44.8926 119.003 44.7396 118.942 44.6488 118.9C44.5597 118.858 44.5212 118.831 44.5151 118.827L32.7849 135.025ZM47.542 139.32C52.4874 139.32 57.7924 138.223 62.1474 134.705L49.5806 119.147C49.9836 118.821 49.7406 119.32 47.542 119.32V139.32ZM62.0034 134.82C66.7117 131.158 68.942 125.921 68.942 120.314H48.942C48.942 120.489 48.915 120.267 49.1067 119.856C49.1975 119.661 49.3128 119.478 49.44 119.321C49.5654 119.166 49.6724 119.073 49.7246 119.032L62.0034 134.82ZM68.942 120.314C68.942 115.602 67.3945 111.147 64.2081 107.482L49.1159 120.606C49.1174 120.608 49.0946 120.581 49.0621 120.526C49.0293 120.471 48.9983 120.407 48.9741 120.34C48.95 120.274 48.9405 120.227 48.9378 120.212C48.9354 120.197 48.942 120.228 48.942 120.314H68.942ZM64.2081 107.482C61.0098 103.804 56.8228 101.72 52.4473 100.748L48.1087 120.272C48.6807 120.399 48.9732 120.538 49.0828 120.598C49.1767 120.65 49.1601 120.657 49.1159 120.606L64.2081 107.482ZM52.517 100.764L44.081 98.8259L39.603 118.318L48.039 120.256L52.517 100.764ZM44.1441 98.8406C38.6494 97.5408 35.1255 95.3485 32.8141 92.726L17.8099 105.95C23.4025 112.295 30.8986 116.259 39.5399 118.303L44.1441 98.8406ZM32.9314 92.8615C30.7378 90.2808 29.498 87.092 29.498 82.694H9.498C9.498 91.368 12.1342 99.2752 17.6926 105.814L32.9314 92.8615ZM29.498 82.694C29.498 79.3847 30.2305 77.0476 31.3144 75.2911L14.2936 64.7889C10.9695 70.1764 9.498 76.2753 9.498 82.694H29.498ZM31.284 75.34C32.5019 73.3913 34.2129 71.8203 36.7182 70.614L28.0418 52.594C22.3391 55.3397 17.6661 59.3927 14.324 64.74L31.284 75.34ZM36.7182 70.614C39.1891 69.4243 42.5052 68.64 46.972 68.64V48.64C40.1908 48.64 33.7789 49.8317 28.0418 52.594L36.7182 70.614ZM46.972 68.64C53.8333 68.64 57.9924 70.3338 60.6229 72.6001L73.6771 57.4479C66.4276 51.2022 57.1347 48.64 46.972 48.64V68.64ZM60.7482 72.7062C63.2515 74.7923 64.674 77.5169 64.674 82.01H84.674C84.674 72.2151 81.0805 63.6157 73.5518 57.3418L60.7482 72.7062ZM74.674 72.01H57.574V92.01H74.674V72.01ZM67.574 82.01C67.574 76.6358 65.4848 71.5424 60.9709 67.9313L48.4771 83.5487C48.275 83.387 47.9722 83.0571 47.7578 82.5855C47.5556 82.1405 47.574 81.8824 47.574 82.01H67.574ZM61.1258 68.0578C56.8246 64.4734 51.5073 63.46 46.744 63.46V83.46C47.7953 83.46 48.3761 83.5773 48.6138 83.6452C48.8234 83.7051 48.6427 83.6893 48.3222 83.4222L61.1258 68.0578ZM46.744 63.46C42.0467 63.46 36.851 64.548 32.6582 68.1939L45.7818 83.2861C45.4602 83.5657 45.2304 83.625 45.3121 83.6002C45.4272 83.5654 45.8609 83.46 46.744 83.46V63.46ZM32.8512 68.0304C28.3261 71.7685 26.598 76.9712 26.598 82.01H46.598C46.598 81.6978 46.6477 81.8458 46.4793 82.2486C46.3952 82.4497 46.2719 82.6761 46.1039 82.9026C45.9358 83.1291 45.7555 83.3119 45.5888 83.4496L32.8512 68.0304ZM26.598 82.01C26.598 86.449 27.8964 90.765 30.7749 94.4431L46.5251 82.1169C46.5317 82.1254 46.5499 82.1505 46.5709 82.1899C46.5921 82.2295 46.6067 82.2657 46.615 82.2911C46.6231 82.3158 46.6197 82.3133 46.6138 82.2743C46.6077 82.2342 46.598 82.1488 46.598 82.01H26.598ZM31.0818 94.8162C34.1635 98.3845 38.1888 100.443 42.4016 101.434L46.9824 81.9658C46.4806 81.8478 46.2405 81.7266 46.1695 81.6864C46.113 81.6545 46.1551 81.6707 46.2182 81.7438L31.0818 94.8162ZM42.4434 101.444L51.3354 103.496L55.8326 84.0081L46.9406 81.9561L42.4434 101.444ZM51.3721 103.504C57.2817 104.845 60.7312 107.039 62.7679 109.401L77.9161 96.3426C72.3528 89.8891 64.6303 86.0034 55.7959 83.9997L51.3721 103.504ZM62.8244 109.466C64.7529 111.665 66.042 114.733 66.042 119.516H86.042C86.042 110.771 83.5311 102.743 77.8596 96.2776L62.8244 109.466ZM66.042 119.516C66.042 122.627 65.2925 124.984 64.0213 126.93L80.7667 137.866C84.3595 132.364 86.042 126.133 86.042 119.516H66.042ZM63.9432 127.052C62.6882 129.035 60.8578 130.709 58.0811 132.025L66.6429 150.099C72.5302 147.311 77.3878 143.209 80.8448 137.744L63.9432 127.052ZM58.019 132.054C55.4016 133.316 51.8988 134.14 47.2 134.14V154.14C54.2052 154.14 60.8105 152.912 66.705 150.07L58.019 132.054ZM104.839 141.062L100.303 149.974C100.346 149.996 100.389 150.017 100.433 150.039L104.839 141.062ZM95.0355 132.284L86.4605 137.429C86.5011 137.497 86.5425 137.564 86.5847 137.63L95.0355 132.284ZM95.0355 70.496L86.5847 65.1496C86.5585 65.191 86.5326 65.2326 86.507 65.2745L95.0355 70.496ZM104.839 61.832L109.246 70.8087C109.29 70.7873 109.333 70.7656 109.376 70.7436L104.839 61.832ZM134.023 61.832L129.42 70.7095C129.485 70.7433 129.551 70.7764 129.617 70.8087L134.023 61.832ZM143.713 70.496L135.185 75.7175C135.211 75.7593 135.236 75.801 135.263 75.8424L143.713 70.496ZM147.247 83.72V93.72C152.77 93.72 157.247 89.2428 157.247 83.72H147.247ZM130.147 83.72H120.147C120.147 89.2428 124.625 93.72 130.147 93.72V83.72ZM127.297 76.082L120.378 83.3019C120.427 83.3489 120.477 83.3953 120.527 83.4413L127.297 76.082ZM111.451 76.082L104.681 68.7227C104.631 68.7687 104.581 68.8151 104.532 68.8621L111.451 76.082ZM111.451 126.698L104.38 133.769C104.479 133.867 104.579 133.963 104.681 134.057L111.451 126.698ZM127.297 126.698L134.217 133.918L134.223 133.912L127.297 126.698ZM130.147 119.06V109.06C124.625 109.06 120.147 113.537 120.147 119.06H130.147ZM147.247 119.06H157.247C157.247 113.537 152.77 109.06 147.247 109.06V119.06ZM143.713 132.284L135.214 127.015C135.205 127.031 135.195 127.046 135.185 127.062L143.713 132.284ZM134.023 141.062L138.496 150.006C138.517 149.995 138.539 149.985 138.56 149.974L134.023 141.062ZM119.431 134.14C115.122 134.14 111.816 133.347 109.246 132.085L100.433 150.039C106.223 152.881 112.645 154.14 119.431 154.14V134.14ZM109.376 132.15C106.69 130.783 104.819 129.045 103.486 126.938L86.5847 137.63C89.9637 142.971 94.6285 147.085 100.303 149.974L109.376 132.15ZM103.61 127.139C102.381 125.09 101.615 122.508 101.615 119.06H81.6155C81.6155 125.644 83.1299 131.878 86.4605 137.429L103.61 127.139ZM101.615 119.06V83.72H81.6155V119.06H101.615ZM101.615 83.72C101.615 80.16 102.397 77.6243 103.564 75.7175L86.507 65.2745C83.1144 70.8157 81.6155 77.096 81.6155 83.72H101.615ZM103.486 75.8424C104.798 73.7685 106.625 72.0953 109.246 70.8087L100.433 52.8553C94.6936 55.6727 89.9846 59.7755 86.5847 65.1496L103.486 75.8424ZM109.376 70.7436C111.916 69.4508 115.173 68.64 119.431 68.64V48.64C112.594 48.64 106.123 49.9572 100.303 52.9204L109.376 70.7436ZM119.431 68.64C123.796 68.64 127.015 69.4622 129.42 70.7095L138.627 52.9545C132.824 49.9458 126.315 48.64 119.431 48.64V68.64ZM129.617 70.8087C132.213 72.0831 133.962 73.7194 135.185 75.7175L152.242 65.2745C148.905 59.8246 144.194 55.6849 138.43 52.8553L129.617 70.8087ZM135.263 75.8424C136.457 77.7305 137.247 80.2202 137.247 83.72H157.247C157.247 77.0358 155.682 70.7095 152.164 65.1496L135.263 75.8424ZM147.247 73.72H130.147V93.72H147.247V73.72ZM140.147 83.72C140.147 78.4525 138.591 72.8841 134.068 68.7227L120.527 83.4413C120.411 83.3346 120.302 83.2075 120.213 83.0726C120.124 82.9395 120.081 82.8384 120.066 82.7984C120.04 82.7286 120.147 82.9758 120.147 83.72H140.147ZM134.217 68.8621C129.952 64.7757 124.499 63.46 119.431 63.46V83.46C120.312 83.46 120.718 83.5749 120.801 83.6023C120.835 83.6138 120.792 83.6028 120.7 83.5485C120.605 83.4927 120.492 83.4103 120.378 83.3019L134.217 68.8621ZM119.431 63.46C114.336 63.46 108.96 64.7863 104.681 68.7227L118.222 83.4413C118.036 83.6124 117.902 83.6457 117.993 83.6158C118.121 83.5737 118.556 83.46 119.431 83.46V63.46ZM104.532 68.8621C100.163 73.0499 98.7155 78.57 98.7155 83.72H118.715C118.715 82.9357 118.825 82.6441 118.814 82.6748C118.806 82.6964 118.771 82.7867 118.688 82.9162C118.604 83.0479 118.496 83.1819 118.371 83.3019L104.532 68.8621ZM98.7155 83.72V119.06H118.715V83.72H98.7155ZM98.7155 119.06C98.7155 124.236 100.213 129.602 104.38 133.769L118.523 119.627C118.599 119.704 118.672 119.795 118.73 119.888C118.788 119.98 118.811 120.041 118.814 120.048C118.817 120.056 118.715 119.777 118.715 119.06H98.7155ZM104.681 134.057C108.96 137.994 114.336 139.32 119.431 139.32V119.32C118.556 119.32 118.121 119.206 117.993 119.164C117.902 119.134 118.036 119.168 118.222 119.339L104.681 134.057ZM119.431 139.32C124.499 139.32 129.952 138.004 134.217 133.918L120.378 119.478C120.492 119.37 120.605 119.287 120.7 119.231C120.792 119.177 120.835 119.166 120.801 119.178C120.718 119.205 120.312 119.32 119.431 119.32V139.32ZM134.223 133.912C138.54 129.768 140.147 124.352 140.147 119.06H120.147C120.147 119.736 120.049 119.971 120.066 119.925C120.075 119.9 120.106 119.828 120.168 119.732C120.231 119.635 120.304 119.55 120.372 119.484L134.223 133.912ZM130.147 129.06H147.247V109.06H130.147V129.06ZM137.247 119.06C137.247 122.447 136.473 124.984 135.214 127.015L152.212 137.553C155.666 131.984 157.247 125.705 157.247 119.06H137.247ZM135.185 127.062C133.941 129.094 132.148 130.796 129.487 132.15L138.56 149.974C144.259 147.072 148.926 142.922 152.242 137.506L135.185 127.062ZM129.551 132.118C127.114 133.336 123.847 134.14 119.431 134.14V154.14C126.263 154.14 132.725 152.892 138.496 150.006L129.551 132.118ZM165.671 143H155.671C155.671 148.523 160.148 153 165.671 153V143ZM165.671 128.18V118.18C160.148 118.18 155.671 122.657 155.671 128.18H165.671ZM182.201 128.18V138.18C187.724 138.18 192.201 133.703 192.201 128.18H182.201ZM182.201 74.6H192.201C192.201 69.0771 187.724 64.6 182.201 64.6V74.6ZM165.671 74.6H155.671C155.671 80.1228 160.148 84.6 165.671 84.6V74.6ZM165.671 59.78V49.78C160.148 49.78 155.671 54.2572 155.671 59.78H165.671ZM215.831 59.78H225.831C225.831 54.2572 221.354 49.78 215.831 49.78V59.78ZM215.831 74.6V84.6C221.354 84.6 225.831 80.1228 225.831 74.6H215.831ZM199.301 74.6V64.6C193.778 64.6 189.301 69.0771 189.301 74.6H199.301ZM199.301 128.18H189.301C189.301 133.703 193.778 138.18 199.301 138.18V128.18ZM215.831 128.18H225.831C225.831 122.657 221.354 118.18 215.831 118.18V128.18ZM215.831 143V153C221.354 153 225.831 148.523 225.831 143H215.831ZM175.671 143V128.18H155.671V143H175.671ZM165.671 138.18H182.201V118.18H165.671V138.18ZM192.201 128.18V74.6H172.201V128.18H192.201ZM182.201 64.6H165.671V84.6H182.201V64.6ZM175.671 74.6V59.78H155.671V74.6H175.671ZM165.671 69.78H215.831V49.78H165.671V69.78ZM205.831 59.78V74.6H225.831V59.78H205.831ZM215.831 64.6H199.301V84.6H215.831V64.6ZM189.301 74.6V128.18H209.301V74.6H189.301ZM199.301 138.18H215.831V118.18H199.301V138.18ZM205.831 128.18V143H225.831V128.18H205.831ZM215.831 133H165.671V153H215.831V133ZM237.446 143H227.446C227.446 148.523 231.924 153 237.446 153V143ZM237.446 59.78V49.78C231.924 49.78 227.446 54.2572 227.446 59.78H237.446ZM288.746 59.78H298.746C298.746 54.2572 294.269 49.78 288.746 49.78V59.78ZM288.746 74.372V84.372C294.269 84.372 298.746 79.8948 298.746 74.372H288.746ZM254.204 74.372V64.372C248.682 64.372 244.204 68.8491 244.204 74.372H254.204ZM254.204 93.068H244.204C244.204 98.5908 248.682 103.068 254.204 103.068V93.068ZM284.756 93.068H294.756C294.756 87.5451 290.279 83.068 284.756 83.068V93.068ZM284.756 107.66V117.66C290.279 117.66 294.756 113.183 294.756 107.66H284.756ZM254.204 107.66V97.66C248.682 97.66 244.204 102.137 244.204 107.66H254.204ZM254.204 128.408H244.204C244.204 133.931 248.682 138.408 254.204 138.408V128.408ZM288.746 128.408H298.746C298.746 122.885 294.269 118.408 288.746 118.408V128.408ZM288.746 143V153C294.269 153 298.746 148.523 298.746 143H288.746ZM247.446 143V59.78H227.446V143H247.446ZM237.446 69.78H288.746V49.78H237.446V69.78ZM278.746 59.78V74.372H298.746V59.78H278.746ZM288.746 64.372H254.204V84.372H288.746V64.372ZM244.204 74.372V93.068H264.204V74.372H244.204ZM254.204 103.068H284.756V83.068H254.204V103.068ZM274.756 93.068V107.66H294.756V93.068H274.756ZM284.756 97.66H254.204V117.66H284.756V97.66ZM244.204 107.66V128.408H264.204V107.66H244.204ZM254.204 138.408H288.746V118.408H254.204V138.408ZM278.746 128.408V143H298.746V128.408H278.746ZM288.746 133H237.446V153H288.746V133ZM306.942 143H296.942C296.942 148.523 301.419 153 306.942 153V143ZM306.942 59.78V49.78C301.419 49.78 296.942 54.2572 296.942 59.78H306.942ZM326.892 59.78L336.375 56.6077C335.011 52.5294 331.192 49.78 326.892 49.78V59.78ZM348.438 124.19L338.954 127.362C340.558 132.157 345.489 135.001 350.443 133.987C355.396 132.973 358.814 128.421 358.405 123.382L348.438 124.19ZM347.64 114.5L337.673 115.314C337.673 115.319 337.674 115.325 337.674 115.33L347.64 114.5ZM346.842 103.442L336.85 103.85C336.853 103.922 336.857 103.994 336.861 104.066L346.842 103.442ZM346.614 59.78V49.78C341.091 49.78 336.614 54.2572 336.614 59.78H346.614ZM361.662 59.78H371.662C371.662 54.2572 367.185 49.78 361.662 49.78V59.78ZM361.662 143V153C367.185 153 371.662 148.523 371.662 143H361.662ZM341.712 143L332.218 146.142C333.573 150.236 337.4 153 341.712 153V143ZM320.394 78.59L329.887 75.4479C328.289 70.6192 323.321 67.7594 318.343 68.8026C313.365 69.8457 309.963 74.4594 310.438 79.5234L320.394 78.59ZM321.078 87.254L331.055 86.5738L331.055 86.5738L321.078 87.254ZM321.648 97.4L311.658 97.844C311.661 97.9178 311.665 97.9915 311.67 98.0652L321.648 97.4ZM321.99 143V153C327.513 153 331.99 148.523 331.99 143H321.99ZM316.942 143V59.78H296.942V143H316.942ZM306.942 69.78H326.892V49.78H306.942V69.78ZM317.408 62.9523L338.954 127.362L357.921 121.018L336.375 56.6077L317.408 62.9523ZM358.405 123.382C358.176 120.561 357.91 117.323 357.605 113.67L337.674 115.33C337.978 118.973 338.243 122.195 338.471 124.998L358.405 123.382ZM357.607 113.686C357.308 110.024 357.046 106.402 356.822 102.818L336.861 104.066C337.093 107.778 337.364 111.528 337.673 115.314L357.607 113.686ZM356.834 103.034C356.685 99.3924 356.614 96.3832 356.614 93.98H336.614C336.614 96.7448 336.695 100.044 336.85 103.85L356.834 103.034ZM356.614 93.98V59.78H336.614V93.98H356.614ZM346.614 69.78H361.662V49.78H346.614V69.78ZM351.662 59.78V143H371.662V59.78H351.662ZM361.662 133H341.712V153H361.662V133ZM351.205 139.858L329.887 75.4479L310.9 81.7321L332.218 146.142L351.205 139.858ZM310.438 79.5234C310.655 81.8467 310.877 84.6461 311.101 87.9342L331.055 86.5738C330.823 83.1739 330.588 80.1973 330.35 77.6566L310.438 79.5234ZM311.101 87.9342C311.324 91.1979 311.509 94.5011 311.658 97.844L331.638 96.956C331.483 93.4589 331.288 89.9981 331.055 86.5738L311.101 87.9342ZM311.67 98.0652C311.887 101.323 311.99 104.134 311.99 106.52H331.99C331.99 103.586 331.865 100.317 331.626 96.7348L311.67 98.0652ZM311.99 106.52V143H331.99V106.52H311.99ZM321.99 133H306.942V153H321.99V133ZM387.837 113.36H377.837C377.837 118.883 382.315 123.36 387.837 123.36V113.36ZM387.837 97.4V87.4C382.315 87.4 377.837 91.8772 377.837 97.4H387.837ZM424.317 97.4H434.317C434.317 91.8772 429.84 87.4 424.317 87.4V97.4ZM424.317 113.36V123.36C429.84 123.36 434.317 118.883 434.317 113.36H424.317ZM397.837 113.36V97.4H377.837V113.36H397.837ZM387.837 107.4H424.317V87.4H387.837V107.4ZM414.317 97.4V113.36H434.317V97.4H414.317ZM424.317 103.36H387.837V123.36H424.317V103.36Z" fill="#FFEFD7"/>
</g>
<path d="M14.7158 176.577L464.122 176.577" stroke="#FFEFD7" stroke-width="14" stroke-linecap="round" stroke-linejoin="round"/>
<path d="M405.74 12.3461L513 12.3461" stroke="#FFEFD7" stroke-width="17" stroke-linecap="round" stroke-linejoin="round"/>
<path d="M462.765 17.7308L462.765 172.538" stroke="#FFEFD7" stroke-width="17" stroke-linecap="round" stroke-linejoin="round"/>
<g filter="url(#filter2_d_279_3325)">
<path d="M12 173.885L461.407 173.885" stroke="#AD2873" stroke-width="15" stroke-linecap="round" stroke-linejoin="round"/>
</g>
<g filter="url(#filter3_d_279_3325)">
<path d="M403.024 9.65387L510.285 9.65386" stroke="#AD2873" stroke-width="18" stroke-linecap="round" stroke-linejoin="round"/>
</g>
<g filter="url(#filter4_d_279_3325)">
<path d="M460.049 15.0385L460.049 169.846" stroke="#AD2873" stroke-width="18" stroke-linecap="round" stroke-linejoin="round"/>
</g>
</g>
<defs>
<filter id="filter0_d_279_3325" x="0.5" y="0.65387" width="525" height="193.346" filterUnits="userSpaceOnUse" color-interpolation-filters="sRGB">
<feFlood flood-opacity="0" result="BackgroundImageFix"/>
<feColorMatrix in="SourceAlpha" type="matrix" values="0 0 0 0 0 0 0 0 0 0 0 0 0 0 0 0 0 0 127 0" result="hardAlpha"/>
<feOffset dy="4"/>
<feGaussianBlur stdDeviation="2"/>
<feComposite in2="hardAlpha" operator="out"/>
<feColorMatrix type="matrix" values="0 0 0 0 0 0 0 0 0 0 0 0 0 0 0 0 0 0 0.25 0"/>
<feBlend mode="normal" in2="BackgroundImageFix" result="effect1_dropShadow_279_3325"/>
<feBlend mode="normal" in="SourceGraphic" in2="effect1_dropShadow_279_3325" result="shape"/>
</filter>
<filter id="filter1_d_279_3325" x="14.3584" y="58.64" width="413.959" height="93.5" filterUnits="userSpaceOnUse" color-interpolation-filters="sRGB">
<feFlood flood-opacity="0" result="BackgroundImageFix"/>
<feColorMatrix in="SourceAlpha" type="matrix" values="0 0 0 0 0 0 0 0 0 0 0 0 0 0 0 0 0 0 127 0" result="hardAlpha"/>
<feOffset dy="4"/>
<feGaussianBlur stdDeviation="2"/>
<feComposite in2="hardAlpha" operator="out"/>
<feColorMatrix type="matrix" values="0 0 0 0 0 0 0 0 0 0 0 0 0 0 0 0 0 0 0.25 0"/>
<feBlend mode="normal" in2="BackgroundImageFix" result="effect1_dropShadow_279_3325"/>
<feBlend mode="normal" in="SourceGraphic" in2="effect1_dropShadow_279_3325" result="shape"/>
</filter>
<filter id="filter2_d_279_3325" x="0.5" y="166.385" width="472.406" height="23" filterUnits="userSpaceOnUse" color-interpolation-filters="sRGB">
<feFlood flood-opacity="0" result="BackgroundImageFix"/>
<feColorMatrix in="SourceAlpha" type="matrix" values="0 0 0 0 0 0 0 0 0 0 0 0 0 0 0 0 0 0 127 0" result="hardAlpha"/>
<feOffset dy="4"/>
<feGaussianBlur stdDeviation="2"/>
<feComposite in2="hardAlpha" operator="out"/>
<feColorMatrix type="matrix" values="0 0 0 0 0 0 0 0 0 0 0 0 0 0 0 0 0 0 0.25 0"/>
<feBlend mode="normal" in2="BackgroundImageFix" result="effect1_dropShadow_279_3325"/>
<feBlend mode="normal" in="SourceGraphic" in2="effect1_dropShadow_279_3325" result="shape"/>
</filter>
<filter id="filter3_d_279_3325" x="390.024" y="0.65387" width="133.26" height="26" filterUnits="userSpaceOnUse" color-interpolation-filters="sRGB">
<feFlood flood-opacity="0" result="BackgroundImageFix"/>
<feColorMatrix in="SourceAlpha" type="matrix" values="0 0 0 0 0 0 0 0 0 0 0 0 0 0 0 0 0 0 127 0" result="hardAlpha"/>
<feOffset dy="4"/>
<feGaussianBlur stdDeviation="2"/>
<feComposite in2="hardAlpha" operator="out"/>
<feColorMatrix type="matrix" values="0 0 0 0 0 0 0 0 0 0 0 0 0 0 0 0 0 0 0.25 0"/>
<feBlend mode="normal" in2="BackgroundImageFix" result="effect1_dropShadow_279_3325"/>
<feBlend mode="normal" in="SourceGraphic" in2="effect1_dropShadow_279_3325" result="shape"/>
</filter>
<filter id="filter4_d_279_3325" x="447.049" y="6.03851" width="26" height="180.808" filterUnits="userSpaceOnUse" color-interpolation-filters="sRGB">
<feFlood flood-opacity="0" result="BackgroundImageFix"/>
<feColorMatrix in="SourceAlpha" type="matrix" values="0 0 0 0 0 0 0 0 0 0 0 0 0 0 0 0 0 0 127 0" result="hardAlpha"/>
<feOffset dy="4"/>
<feGaussianBlur stdDeviation="2"/>
<feComposite in2="hardAlpha" operator="out"/>
<feColorMatrix type="matrix" values="0 0 0 0 0 0 0 0 0 0 0 0 0 0 0 0 0 0 0.25 0"/>
<feBlend mode="normal" in2="BackgroundImageFix" result="effect1_dropShadow_279_3325"/>
<feBlend mode="normal" in="SourceGraphic" in2="effect1_dropShadow_279_3325" result="shape"/>
</filter>
</defs>
</svg>
