<svg width="23" height="27" viewBox="0 0 23 27" fill="none" xmlns="http://www.w3.org/2000/svg">
<path d="M21.8246 21.4036C18.667 15.2946 15.5811 11.8735 15.5648 8.625V3.75C15.5648 3.75 16.1838 3.75152 16.3773 3.75C18.473 3.73223 18.6361 0.582773 16.3773 0.5H6.6273C4.40156 0.62543 4.51328 3.66621 6.6273 3.75H7.4398V8.625C7.46926 11.8786 4.0466 15.743 1.18 21.4036C0.498007 22.7508 0.87125 26.2669 4.9825 26.5H18.0221C21.6342 26.367 22.6427 22.9864 21.8246 21.4036ZM17.8449 23.25H5.12062C4.66562 23.25 4.07555 22.7407 4.43812 21.9662L5.81226 19.188C9.92047 19.188 11.4353 15.9334 14.7721 15.9355C14.7721 15.9355 18.3212 21.6986 18.4456 21.8687C18.9763 22.5954 18.4629 23.25 17.8449 23.25Z" fill="#0C004E"/>
</svg>
