<svg width="171" height="259" viewBox="0 0 171 259" fill="none" xmlns="http://www.w3.org/2000/svg">
<path d="M165.731 146.127C149.403 195.901 84.6135 222.37 36.6143 197.809C-4.6829 176.629 -12.5606 126.22 20.7512 91.0159C27.2226 84.1726 34.9549 78.3239 43.5686 73.7569C49.7852 70.4784 56.387 67.8891 63.2101 66.0531C64.4065 65.7088 65.6679 65.788 66.7167 66.2734C67.7655 66.7588 68.5159 67.6106 68.8027 68.6413C69.0894 69.6721 68.8891 70.7975 68.2459 71.7698C67.6026 72.7422 66.5691 73.4819 65.3726 73.8262C60.9283 75.2137 56.605 76.956 52.4594 79.0301C44.9122 82.8482 38.0974 87.7913 32.348 93.6178L30.8084 95.2115C30.2676 95.7891 29.1312 97.1286 28.6217 97.6694C28.2205 98.1405 26.9919 99.7175 26.5649 100.217C25.8114 101.274 24.7244 102.675 24.0579 103.74C3.22059 134.644 14.7092 172.682 49.5826 186.144C63.1794 191.368 78.8329 192.074 93.8552 188.139C117.752 182.055 137.749 163.654 143.386 142.449C143.773 141.114 144.451 139.838 145.379 138.694C146.308 137.55 147.469 136.561 148.796 135.784C150.122 135.007 151.588 134.458 153.108 134.168C154.627 133.878 156.171 133.853 157.649 134.095C159.127 134.337 160.511 134.841 161.719 135.577C162.927 136.314 163.936 137.268 164.688 138.385C165.44 139.502 165.919 140.76 166.099 142.085C166.278 143.411 166.154 144.778 165.732 146.106L165.731 146.127Z" fill="white"/>
<path d="M77.6902 181.182C83.3871 181.18 88.6511 183.216 92.3254 186.843C95.9997 190.471 97.7836 195.392 97.285 200.527L93.1241 243.378L50.1409 243.427L54.3019 200.576C54.8007 195.439 57.5436 190.509 61.9272 186.872C66.3108 183.235 71.976 181.188 77.6765 181.182L77.6902 181.182Z" fill="white"/>
<path d="M88.05 21.2201L54.4423 30.0873L77.0279 122.785L110.636 113.918L88.05 21.2201Z" fill="#FCFCFC"/>
<path d="M62.8972 82.0459C70.542 82.0372 77.2746 76.5168 77.935 69.7157C78.5954 62.9146 72.9335 57.4083 65.2887 57.417C57.644 57.4257 50.9113 62.9461 50.2509 69.7472C49.5905 76.5483 55.2525 82.0546 62.8972 82.0459Z" fill="#6AA5A5"/>
<path d="M63.5281 75.5643C67.5516 75.5598 71.081 72.7994 71.4112 69.3988C71.7414 65.9983 68.7474 63.2453 64.7238 63.2499C60.7003 63.2545 57.1709 66.0149 56.8407 69.4154C56.5105 72.8159 59.5045 75.5689 63.5281 75.5643Z" fill="white"/>
<path d="M155.91 151.93C163.555 151.921 170.287 146.401 170.948 139.6C171.608 132.799 165.946 127.292 158.301 127.301C150.657 127.31 143.924 132.83 143.264 139.631C142.603 146.432 148.265 151.939 155.91 151.93Z" fill="#6AA5A5"/>
<path d="M156.475 146.097C160.499 146.093 164.043 143.187 164.39 139.608C164.738 136.028 161.758 133.13 157.734 133.135C153.711 133.139 150.167 136.045 149.82 139.624C149.472 143.204 152.452 146.102 156.475 146.097Z" fill="white"/>
<path d="M76.535 0L56.1778 5.35438L61.8105 28.5775L82.1678 23.2231L76.535 0Z" fill="#282828"/>
<path d="M165.14 121.521L72.328 147.961L73.3457 151.706L166.158 125.266L165.14 121.521Z" fill="white"/>
<path d="M74.7799 210.996C82.2235 210.987 88.793 205.467 89.4534 198.666C90.1138 191.865 84.615 186.358 77.1714 186.367C69.7278 186.375 63.1582 191.895 62.4978 198.696C61.8374 205.498 67.3363 211.004 74.7799 210.996Z" fill="#6AA5A5"/>
<path d="M75.3478 205.162C79.1702 205.158 82.5506 202.253 82.8982 198.673C83.2458 195.094 80.4289 192.195 76.6065 192.2C72.7841 192.204 69.4037 195.109 69.0561 198.689C68.7086 202.269 71.5255 205.167 75.3478 205.162Z" fill="white"/>
<path d="M152.437 243.31L34.5396 243.444C32.108 243.447 29.6937 244.296 27.828 245.805C25.9622 247.314 24.7979 249.358 24.591 251.489C24.3985 253.484 25.1179 255.396 26.591 256.805C28.0642 258.213 30.1706 259.003 32.447 259L43.1604 258.988C43.8367 257.274 45.1276 255.756 46.8312 254.671C48.5348 253.586 50.5549 252.996 52.5755 252.992L132.552 252.901C134.573 252.899 136.479 253.485 137.973 254.566C139.466 255.648 140.462 257.164 140.805 258.877L151.514 258.865C153.79 258.861 156.049 258.066 157.795 256.654C159.541 255.242 160.631 253.329 160.826 251.334C161.033 249.203 160.265 247.161 158.692 245.656C157.119 244.151 154.869 243.307 152.437 243.31Z" fill="white"/>
</svg>
