<svg width="22" height="25" viewBox="0 0 22 25" fill="none" xmlns="http://www.w3.org/2000/svg">
<path d="M14.7705 25C15.9023 25 16.9399 24.3857 17.5049 23.4053C18.2954 22.0342 18.75 20.4468 18.75 18.75C18.75 16.9863 18.2578 15.3413 17.4102 13.9346L19.5312 11.8135L19.9893 12.2715C20.2944 12.5767 20.7891 12.5767 21.0942 12.2715L21.646 11.7188C21.9512 11.4136 21.9512 10.9189 21.646 10.6138L19.0732 8.04102C18.7681 7.73584 18.2734 7.73584 17.9683 8.04102L17.416 8.59326C17.1108 8.89844 17.1108 9.39307 17.416 9.69824L17.874 10.1563L15.9497 12.0806C15.3853 11.5254 14.752 11.0391 14.0625 10.6396V3.11231L14.8423 3.11133C15.2729 3.11084 15.6221 2.76172 15.6226 2.33106L15.6245 0.782227C15.625 0.350098 15.2744 -0.000487772 14.8423 5.09424e-07L3.90771 0.0126958C3.47705 0.0131841 3.12793 0.362305 3.12744 0.792969L3.12549 2.34229C3.125 2.77441 3.47559 3.12451 3.90771 3.12402L4.6875 3.12305V10.6392C1.88818 12.2607 0 15.2817 0 18.75C0 20.4468 0.45459 22.0347 1.24512 23.4053C1.81055 24.3857 2.84814 25 3.97949 25H14.7705ZM5.8623 12.6675L7.03125 11.9902V3.12061L11.7188 3.11523V11.9902L12.8877 12.6675C14.0991 13.3691 15.042 14.4121 15.6494 15.625H3.10059C3.7085 14.4121 4.65088 13.3691 5.8623 12.6675Z" fill="white"/>
</svg>
