<svg width="19" height="19" viewBox="0 0 19 19" fill="none" xmlns="http://www.w3.org/2000/svg">
<path d="M4.75 19H1.1875C0.530664 19 0 18.4693 0 17.8125V10.6875C0 10.0307 0.530664 9.5 1.1875 9.5H4.75V19Z" fill="#FFEFD7"/>
<path d="M11.875 19H7.125C6.46816 19 5.9375 18.4693 5.9375 17.8125V1.1875C5.9375 0.530664 6.46816 0 7.125 0H11.875C12.5318 0 13.0625 0.530664 13.0625 1.1875V17.8125C13.0625 18.4693 12.5318 19 11.875 19Z" fill="#FFEFD7"/>
<path d="M17.8125 19H14.25V5.9375H17.8125C18.4693 5.9375 19 6.46816 19 7.125V17.8125C19 18.4693 18.4693 19 17.8125 19Z" fill="#FFEFD7"/>
</svg>
