<svg width="85" height="97" viewBox="0 0 85 97" fill="none" xmlns="http://www.w3.org/2000/svg">
<path d="M66.7857 30.3125V24.25C66.7857 10.8784 55.8911 0 42.5 0C29.1087 0 18.2143 10.8784 18.2143 24.25V30.3125H0V81.8438C0 90.2144 6.79564 97 15.1786 97H69.8214C78.2044 97 85 90.2144 85 81.8438V30.3125H66.7857ZM30.3571 24.25C30.3571 17.5642 35.8044 12.125 42.5 12.125C49.1956 12.125 54.6429 17.5642 54.6429 24.25V30.3125H30.3571V24.25ZM60.7143 46.9844C58.1994 46.9844 56.1607 44.9487 56.1607 42.4375C56.1607 39.9263 58.1994 37.8906 60.7143 37.8906C63.2292 37.8906 65.2679 39.9263 65.2679 42.4375C65.2679 44.9487 63.2292 46.9844 60.7143 46.9844ZM24.2857 46.9844C21.7708 46.9844 19.7321 44.9487 19.7321 42.4375C19.7321 39.9263 21.7708 37.8906 24.2857 37.8906C26.8006 37.8906 28.8393 39.9263 28.8393 42.4375C28.8393 44.9487 26.8006 46.9844 24.2857 46.9844Z" fill="#FFEFD7"/>
</svg>
