<svg width="85" height="85" viewBox="0 0 85 85" fill="none" xmlns="http://www.w3.org/2000/svg">
<path d="M42.5 47.8125C55.6982 47.8125 66.4062 37.1045 66.4062 23.9062C66.4062 10.708 55.6982 0 42.5 0C29.3018 0 18.5938 10.708 18.5938 23.9062C18.5938 37.1045 29.3018 47.8125 42.5 47.8125ZM63.75 53.125H54.6025C50.917 54.8184 46.8164 55.7812 42.5 55.7812C38.1836 55.7812 34.0996 54.8184 30.3975 53.125H21.25C9.5127 53.125 0 62.6377 0 74.375V77.0312C0 81.4307 3.56934 85 7.96875 85H77.0312C81.4307 85 85 81.4307 85 77.0312V74.375C85 62.6377 75.4873 53.125 63.75 53.125Z" fill="#FFEFD7"/>
</svg>
