<svg width="153" height="134" viewBox="0 0 153 134" fill="none" xmlns="http://www.w3.org/2000/svg">
<ellipse rx="61" ry="62.5" transform="matrix(-1 0 0 1 77 62.5)" fill="white"/>
<path d="M114.028 86.5372L114.026 86.5357L94.3328 67L114.026 47.4644L114.028 47.4628C115.657 45.8318 115.657 43.1825 114.028 41.5515L101.925 29.4377C100.296 27.8065 97.648 27.8065 96.0183 29.4377L96.0168 29.4393L76.5 49.1505L56.9832 29.4393L56.9816 29.4377C55.352 27.8065 52.7043 27.8065 51.0746 29.4377L38.9721 41.5515C37.3426 43.1825 37.3426 45.8318 38.9721 47.4628L38.9737 47.4643L58.6672 67L38.9737 86.5356L38.9721 86.5372C37.3426 88.1682 37.3426 90.8175 38.9721 92.4485L51.0746 104.562C52.7043 106.194 55.352 106.194 56.9817 104.562L56.9832 104.561L76.5 84.8495L96.0168 104.561L96.0183 104.562C97.648 106.194 100.296 106.194 101.925 104.562L114.028 92.4485C115.657 90.8175 115.657 88.1682 114.028 86.5372ZM14.3438 0.5H138.656C146.299 0.5 152.5 6.70651 152.5 14.3571V119.643C152.5 127.293 146.299 133.5 138.656 133.5H14.3438C6.70139 133.5 0.5 127.293 0.5 119.643V14.3571C0.5 6.70651 6.70139 0.5 14.3438 0.5Z" fill="#FFCD4E" stroke="black"/>
</svg>
