<svg width="199" height="199" viewBox="0 0 199 199" fill="none" xmlns="http://www.w3.org/2000/svg">
<path d="M99.5 111.938C130.399 111.938 155.469 86.8682 155.469 55.9688C155.469 25.0693 130.399 0 99.5 0C68.6006 0 43.5312 25.0693 43.5312 55.9688C43.5312 86.8682 68.6006 111.938 99.5 111.938ZM149.25 124.375H127.834C119.206 128.339 109.605 130.594 99.5 130.594C89.3945 130.594 79.8332 128.339 71.1658 124.375H49.75C22.2709 124.375 0 146.646 0 174.125V180.344C0 190.644 8.35645 199 18.6562 199H180.344C190.644 199 199 190.644 199 180.344V174.125C199 146.646 176.729 124.375 149.25 124.375Z" fill="#D9D9D9"/>
</svg>
