<svg width="67" height="54" viewBox="0 0 67 54" fill="none" xmlns="http://www.w3.org/2000/svg">
<path d="M20.6924 26C24.0897 26 27.3479 24.6304 29.7501 22.1924C32.1524 19.7544 33.502 16.4478 33.502 13C33.502 9.55219 32.1524 6.24558 29.7501 3.80761C27.3479 1.36964 24.0897 0 20.6924 0C17.2951 0 14.0369 1.36964 11.6347 3.80761C9.23239 6.24558 7.88282 9.55219 7.88282 13C7.88282 16.4478 9.23239 19.7544 11.6347 22.1924C14.0369 24.6304 17.2951 26 20.6924 26ZM43.1072 46.58C45.1961 47.448 47.8526 48 51.2344 48C67 48 67 36 67 36C67 34.4094 66.3777 32.8839 65.2698 31.7588C64.1619 30.6337 62.6591 30.0011 61.0918 30H42.851C44.4 31.904 45.3301 34.34 45.3301 37V38.424C45.3221 38.7608 45.2997 39.0971 45.2631 39.432C44.9972 41.9312 44.267 44.3567 43.1111 46.58H43.1072ZM61.0918 16C61.0918 18.6522 60.0537 21.1957 58.2058 23.0711C56.3579 24.9464 53.8516 26 51.2383 26C48.625 26 46.1187 24.9464 44.2708 23.0711C42.4229 21.1957 41.3848 18.6522 41.3848 16C41.3848 13.3478 42.4229 10.8043 44.2708 8.92893C46.1187 7.05357 48.625 6 51.2383 6C53.8516 6 56.3579 7.05357 58.2058 8.92893C60.0537 10.8043 61.0918 13.3478 61.0918 16ZM0 38C0 35.8783 0.830508 33.8434 2.30882 32.3431C3.78714 30.8429 5.79216 30 7.88282 30H33.502C35.5926 30 37.5976 30.8429 39.076 32.3431C40.5543 33.8434 41.3848 35.8783 41.3848 38C41.3848 38 41.3848 54 20.6924 54C0 54 0 38 0 38ZM45.3262 38.424L45.3144 38.68L45.3223 38.424H45.3262Z" fill="#0C004E"/>
</svg>
