<svg width="42" height="42" viewBox="0 0 42 42" fill="none" xmlns="http://www.w3.org/2000/svg">
<path d="M24.6881 2.75625C23.604 -0.91875 18.396 -0.91875 17.3119 2.75625L17.0494 3.64875C16.8874 4.19894 16.6043 4.70589 16.2209 5.13243C15.8375 5.55898 15.3635 5.89429 14.8336 6.11379C14.3037 6.33329 13.7314 6.43141 13.1587 6.40095C12.586 6.37049 12.0273 6.21222 11.5237 5.93775L10.71 5.4915C7.34212 3.65925 3.65925 7.34212 5.49412 10.7074L5.93775 11.5237C7.1085 13.6762 5.99813 16.3564 3.64875 17.0494L2.75625 17.3119C-0.91875 18.396 -0.91875 23.604 2.75625 24.6881L3.64875 24.9506C4.19894 25.1126 4.70589 25.3957 5.13243 25.7791C5.55898 26.1625 5.89429 26.6365 6.11379 27.1664C6.33329 27.6963 6.43141 28.2686 6.40095 28.8413C6.37049 29.414 6.21222 29.9727 5.93775 30.4762L5.4915 31.29C3.65925 34.6579 7.34212 38.3407 10.7074 36.5059L11.5237 36.0622C12.0273 35.7878 12.586 35.6295 13.1587 35.5991C13.7314 35.5686 14.3037 35.6667 14.8336 35.8862C15.3635 36.1057 15.8375 36.441 16.2209 36.8676C16.6043 37.2941 16.8874 37.8011 17.0494 38.3512L17.3119 39.2437C18.396 42.9188 23.604 42.9188 24.6881 39.2437L24.9506 38.3512C25.1126 37.8011 25.3957 37.2941 25.7791 36.8676C26.1625 36.441 26.6365 36.1057 27.1664 35.8862C27.6963 35.6667 28.2686 35.5686 28.8413 35.5991C29.414 35.6295 29.9727 35.7878 30.4762 36.0622L31.29 36.5085C34.6579 38.3408 38.3407 34.6579 36.5059 31.2926L36.0622 30.4762C35.7878 29.9727 35.6295 29.414 35.5991 28.8413C35.5686 28.2686 35.6667 27.6963 35.8862 27.1664C36.1057 26.6365 36.441 26.1625 36.8676 25.7791C37.2941 25.3957 37.8011 25.1126 38.3512 24.9506L39.2437 24.6881C42.9188 23.604 42.9188 18.396 39.2437 17.3119L38.3512 17.0494C37.8011 16.8874 37.2941 16.6043 36.8676 16.2209C36.441 15.8375 36.1057 15.3635 35.8862 14.8336C35.6667 14.3037 35.5686 13.7314 35.5991 13.1587C35.6295 12.586 35.7878 12.0273 36.0622 11.5237L36.5085 10.71C38.3408 7.34212 34.6579 3.65925 31.2926 5.49412L30.4762 5.93775C29.9727 6.21222 29.414 6.37049 28.8413 6.40095C28.2686 6.43141 27.6963 6.33329 27.1664 6.11379C26.6365 5.89429 26.1625 5.55898 25.7791 5.13243C25.3957 4.70589 25.1126 4.19894 24.9506 3.64875L24.6881 2.75625ZM21 28.6912C18.9602 28.6912 17.0039 27.8809 15.5615 26.4385C14.1191 24.9961 13.3088 23.0398 13.3088 21C13.3088 18.9602 14.1191 17.0039 15.5615 15.5615C17.0039 14.1191 18.9602 13.3088 21 13.3088C23.0392 13.3088 24.9948 14.1188 26.4367 15.5607C27.8786 17.0026 28.6886 18.9582 28.6886 20.9974C28.6886 23.0365 27.8786 24.9922 26.4367 26.4341C24.9948 27.876 23.0392 28.686 21 28.686V28.6912Z" fill="black"/>
</svg>
