<svg width="14" height="14" viewBox="0 0 14 14" fill="none" xmlns="http://www.w3.org/2000/svg">
<path d="M13.6623 11.0332L9.9998 5.87891V1.75H10.2498C10.6654 1.75 10.9998 1.45742 10.9998 1.09375V0.65625C10.9998 0.292578 10.6654 0 10.2498 0H3.74974C3.33411 0 2.99974 0.292578 2.99974 0.65625V1.09375C2.99974 1.45742 3.33411 1.75 3.74974 1.75H3.99975V5.87891L0.33721 11.0332C-0.578424 12.3211 0.477837 14 2.21535 14H11.7842C13.5248 14 14.578 12.3184 13.6623 11.0332ZM4.30912 8.75L5.81539 6.62812C5.93102 6.48594 5.99664 6.31094 5.99664 6.125V1.75H7.99666V6.125C7.99666 6.31367 8.06541 6.48594 8.17791 6.62812L9.68418 8.75H4.30912Z" fill="#69EA7D"/>
</svg>
