<svg width="210" height="235" viewBox="0 0 210 235" fill="none" xmlns="http://www.w3.org/2000/svg">
<path opacity="0.2" d="M83.4576 166.437L124.547 166.437L145.081 199.709L124.547 233L83.4576 233L62.9233 199.709L83.4576 166.437Z" stroke="white" stroke-width="3" stroke-linecap="round" stroke-linejoin="round"/>
<path opacity="0.2" d="M90.4798 199.707C90.4798 192.727 96.529 187.069 103.991 187.069C111.453 187.069 117.502 192.727 117.502 199.707C117.502 206.687 111.453 212.345 103.991 212.345C96.529 212.345 90.4798 206.687 90.4798 199.707Z" stroke="white" stroke-width="3" stroke-linecap="round" stroke-linejoin="round"/>
<path opacity="0.2" d="M82.1787 166.439L61.6239 133.148L20.5346 133.148L0.000335053 166.439L20.5346 199.711L61.6239 199.711" stroke="white" stroke-width="3" stroke-linecap="round" stroke-linejoin="round"/>
<path opacity="0.2" d="M27.5795 166.436C27.5795 159.456 33.6286 153.798 41.0905 153.798C48.5525 153.798 54.6016 159.456 54.6016 166.436C54.6016 173.416 48.5525 179.075 41.0905 179.075C33.6286 179.075 27.5795 173.416 27.5795 166.436Z" stroke="white" stroke-width="3" stroke-linecap="round" stroke-linejoin="round"/>
<path opacity="0.2" d="M124.546 166.435L145.08 133.144L124.546 99.8524L83.4566 99.8524L62.9223 133.144" stroke="white" stroke-width="3" stroke-linecap="round" stroke-linejoin="round"/>
<path opacity="0.2" d="M90.4798 133.147C90.4798 126.167 96.529 120.508 103.991 120.508C111.453 120.508 117.502 126.167 117.502 133.147C117.502 140.127 111.453 145.785 103.991 145.785C96.529 145.785 90.4798 140.127 90.4798 133.147Z" stroke="white" stroke-width="3" stroke-linecap="round" stroke-linejoin="round"/>
<path opacity="0.2" d="M82.1787 99.8533L61.6239 66.5812L20.5346 66.5812L0.000335054 99.8533L20.5346 133.145" stroke="white" stroke-width="3" stroke-linecap="round" stroke-linejoin="round"/>
<path opacity="0.2" d="M27.5795 99.8525C27.5795 92.8725 33.6286 87.2141 41.0905 87.2141C48.5525 87.2141 54.6016 92.8725 54.6016 99.8525C54.6016 106.832 48.5525 112.491 41.0905 112.491C33.6286 112.491 27.5795 106.832 27.5795 99.8525Z" stroke="white" stroke-width="3" stroke-linecap="round" stroke-linejoin="round"/>
<path opacity="0.2" d="M61.6239 66.5825L82.1787 33.2913L61.6239 -3.07859e-05L20.5346 -3.20243e-05L0.000340429 33.2913L20.5346 66.5825" stroke="white" stroke-width="3" stroke-linecap="round" stroke-linejoin="round"/>
<path opacity="0.2" d="M27.5795 33.2909C27.5795 26.3109 33.6286 20.6526 41.0905 20.6526C48.5525 20.6526 54.6016 26.3109 54.6016 33.2909C54.6016 40.2709 48.5525 45.9293 41.0905 45.9293C33.6286 45.9293 27.5795 40.2709 27.5795 33.2909Z" stroke="white" stroke-width="3" stroke-linecap="round" stroke-linejoin="round"/>
<path opacity="0.2" d="M146.377 133.145L187.467 133.145L208.001 99.8532L187.467 66.5812L146.377 66.5812L125.843 99.8532" stroke="white" stroke-width="3" stroke-linecap="round" stroke-linejoin="round"/>
<path opacity="0.2" d="M153.4 99.8525C153.4 92.8725 159.449 87.2141 166.911 87.2141C174.373 87.2141 180.422 92.8725 180.422 99.8525C180.422 106.832 174.373 112.491 166.911 112.491C159.449 112.491 153.4 106.832 153.4 99.8525Z" stroke="white" stroke-width="3" stroke-linecap="round" stroke-linejoin="round"/>
<path opacity="0.2" d="M83.4566 33.2913L124.546 33.2913L145.08 66.5825" stroke="white" stroke-width="3" stroke-linecap="round" stroke-linejoin="round"/>
<path opacity="0.2" d="M90.4798 66.5819C90.4798 59.602 96.529 53.9436 103.991 53.9436C111.453 53.9436 117.502 59.602 117.502 66.5819C117.502 73.5619 111.453 79.2203 103.991 79.2203C96.529 79.2203 90.4798 73.5619 90.4798 66.5819Z" stroke="white" stroke-width="3" stroke-linecap="round" stroke-linejoin="round"/>
<path opacity="0.2" d="M187.467 66.5825L208.001 33.2913L187.467 -3.07853e-05L146.377 -3.20237e-05L125.843 33.2913" stroke="white" stroke-width="3" stroke-linecap="round" stroke-linejoin="round"/>
<path opacity="0.2" d="M153.4 33.2909C153.4 26.3109 159.449 20.6526 166.911 20.6526C174.373 20.6526 180.422 26.3109 180.422 33.2909C180.422 40.2709 174.373 45.9293 166.911 45.9293C159.449 45.9293 153.4 40.2709 153.4 33.2909Z" stroke="white" stroke-width="3" stroke-linecap="round" stroke-linejoin="round"/>
</svg>
