<svg width="1072" height="1024" viewBox="0 0 1072 1024" fill="none" xmlns="http://www.w3.org/2000/svg">
<path opacity="0.2" d="M35.0373 254.331V194.519L-16.662 164.598L-68.3315 194.519V254.331L-16.662 284.222L35.0373 254.331Z" stroke="#E6CCFF" stroke-width="2" stroke-linecap="round" stroke-linejoin="round"/>
<path opacity="0.2" d="M-16.6616 244.078C-5.82211 244.078 2.96502 235.272 2.96502 224.41C2.96502 213.548 -5.82211 204.742 -16.6616 204.742C-27.5011 204.742 -36.2882 213.548 -36.2882 224.41C-36.2882 235.272 -27.5011 244.078 -16.6616 244.078Z" stroke="#E6CCFF" stroke-width="2" stroke-linecap="round" stroke-linejoin="round"/>
<path opacity="0.2" d="M86.7374 162.739V102.927L35.0379 73.0356L-16.6614 102.927V162.739L35.0379 192.63L86.7374 162.739Z" stroke="#E6CCFF" stroke-width="2" stroke-linecap="round" stroke-linejoin="round"/>
<path opacity="0.2" d="M35.038 152.515C45.8775 152.515 54.6646 143.71 54.6646 132.848C54.6646 121.986 45.8775 113.18 35.038 113.18C24.1985 113.18 15.4114 121.986 15.4114 132.848C15.4114 143.71 24.1985 152.515 35.038 152.515Z" stroke="#E6CCFF" stroke-width="2" stroke-linecap="round" stroke-linejoin="round"/>
<path opacity="0.2" d="M138.407 254.331V194.519L86.7371 164.598L35.0376 194.519V254.331L86.7371 284.222L138.407 254.331Z" stroke="#E6CCFF" stroke-width="2" stroke-linecap="round" stroke-linejoin="round"/>
<path opacity="0.2" d="M86.7368 244.078C97.5763 244.078 106.363 235.272 106.363 224.41C106.363 213.548 97.5763 204.742 86.7368 204.742C75.8974 204.742 67.1102 213.548 67.1102 224.41C67.1102 235.272 75.8974 244.078 86.7368 244.078Z" stroke="#E6CCFF" stroke-width="2" stroke-linecap="round" stroke-linejoin="round"/>
<path opacity="0.2" d="M190.106 345.923V286.111L138.406 256.19L86.7369 286.111V345.923L138.406 375.814L190.106 345.923Z" stroke="#E6CCFF" stroke-width="2" stroke-linecap="round" stroke-linejoin="round"/>
<path opacity="0.2" d="M138.407 335.67C149.246 335.67 158.033 326.864 158.033 316.002C158.033 305.14 149.246 296.335 138.407 296.335C127.567 296.335 118.78 305.14 118.78 316.002C118.78 326.864 127.567 335.67 138.407 335.67Z" stroke="#E6CCFF" stroke-width="2" stroke-linecap="round" stroke-linejoin="round"/>
<path opacity="0.2" d="M1071 627.176V567.364L1019.3 537.473L967.631 567.364V627.176L1019.3 657.097L1071 627.176Z" stroke="#E6CCFF" stroke-width="2" stroke-linecap="round" stroke-linejoin="round"/>
<path opacity="0.2" d="M1019.3 616.953C1030.14 616.953 1038.93 608.147 1038.93 597.285C1038.93 586.423 1030.14 577.617 1019.3 577.617C1008.46 577.617 999.674 586.423 999.674 597.285C999.674 608.147 1008.46 616.953 1019.3 616.953Z" stroke="#E6CCFF" stroke-width="2" stroke-linecap="round" stroke-linejoin="round"/>
<path opacity="0.2" d="M170.479 1003.11V943.297L118.81 913.376L67.1102 943.297V1003.11L118.81 1033L170.479 1003.11Z" stroke="#E6CCFF" stroke-width="2" stroke-linecap="round" stroke-linejoin="round"/>
<path opacity="0.2" d="M118.81 992.855C129.649 992.855 138.436 984.05 138.436 973.188C138.436 962.326 129.649 953.52 118.81 953.52C107.97 953.52 99.183 962.326 99.183 973.188C99.183 984.05 107.97 992.855 118.81 992.855Z" stroke="#E6CCFF" stroke-width="2" stroke-linecap="round" stroke-linejoin="round"/>
<path opacity="0.2" d="M241.805 254.331V194.519L190.106 164.598L138.406 194.519V254.331L190.106 284.222L241.805 254.331Z" stroke="#E6CCFF" stroke-width="2" stroke-linecap="round" stroke-linejoin="round"/>
<path opacity="0.2" d="M190.106 244.078C200.946 244.078 209.733 235.272 209.733 224.41C209.733 213.548 200.946 204.742 190.106 204.742C179.267 204.742 170.479 213.548 170.479 224.41C170.479 235.272 179.267 244.078 190.106 244.078Z" stroke="#E6CCFF" stroke-width="2" stroke-linecap="round" stroke-linejoin="round"/>
<path opacity="0.2" d="M138.407 71.1467V11.3344L86.7371 -18.5568L35.0376 11.3344V71.1467L86.7371 101.038L138.407 71.1467Z" stroke="#E6CCFF" stroke-width="2" stroke-linecap="round" stroke-linejoin="round"/>
<path opacity="0.2" d="M86.7368 60.9232C97.5763 60.9232 106.363 52.1177 106.363 41.2556C106.363 30.3935 97.5763 21.588 86.7368 21.588C75.8974 21.588 67.1102 30.3935 67.1102 41.2556C67.1102 52.1177 75.8974 60.9232 86.7368 60.9232Z" stroke="#E6CCFF" stroke-width="2" stroke-linecap="round" stroke-linejoin="round"/>
<path opacity="0.2" d="M190.106 162.739V102.927L138.406 73.0356L86.7369 102.927V162.739L138.406 192.63L190.106 162.739Z" stroke="#E6CCFF" stroke-width="2" stroke-linecap="round" stroke-linejoin="round"/>
<path opacity="0.2" d="M138.407 152.515C149.246 152.515 158.033 143.71 158.033 132.848C158.033 121.986 149.246 113.18 138.407 113.18C127.567 113.18 118.78 121.986 118.78 132.848C118.78 143.71 127.567 152.515 138.407 152.515Z" stroke="#E6CCFF" stroke-width="2" stroke-linecap="round" stroke-linejoin="round"/>
<path opacity="0.2" d="M241.805 71.1467V11.3344L190.106 -18.5568L138.406 11.3344V71.1467L190.106 101.038L241.805 71.1467Z" stroke="#E6CCFF" stroke-width="2" stroke-linecap="round" stroke-linejoin="round"/>
<path opacity="0.2" d="M190.106 60.9232C200.946 60.9232 209.733 52.1177 209.733 41.2556C209.733 30.3935 200.946 21.588 190.106 21.588C179.267 21.588 170.479 30.3935 170.479 41.2556C170.479 52.1177 179.267 60.9232 190.106 60.9232Z" stroke="#E6CCFF" stroke-width="2" stroke-linecap="round" stroke-linejoin="round"/>
</svg>
