<svg width="58" height="66" viewBox="0 0 58 66" fill="none" xmlns="http://www.w3.org/2000/svg">
<path d="M51.7857 28.875H48.6786V19.5938C48.6786 8.79141 39.8491 0 29 0C18.1509 0 9.32143 8.79141 9.32143 19.5938V28.875H6.21429C2.78348 28.875 0 31.6465 0 35.0625V59.8125C0 63.2285 2.78348 66 6.21429 66H51.7857C55.2165 66 58 63.2285 58 59.8125V35.0625C58 31.6465 55.2165 28.875 51.7857 28.875ZM38.3214 28.875H19.6786V19.5938C19.6786 14.4762 23.8603 10.3125 29 10.3125C34.1397 10.3125 38.3214 14.4762 38.3214 19.5938V28.875Z" fill="black"/>
</svg>
