<svg width="46" height="46" viewBox="0 0 46 46" fill="none" xmlns="http://www.w3.org/2000/svg">
<path fill-rule="evenodd" clip-rule="evenodd" d="M27.929 3.28564C27.4933 3.28564 27.0754 3.11256 26.7673 2.80447C26.4592 2.49638 26.2862 2.07852 26.2862 1.64282C26.2862 1.20712 26.4592 0.789259 26.7673 0.481171C27.0754 0.173082 27.4933 0 27.929 0H44.3572C44.7929 0 45.2107 0.173082 45.5188 0.481171C45.8269 0.789259 46 1.20712 46 1.64282V18.071C46 18.5067 45.8269 18.9246 45.5188 19.2327C45.2107 19.5408 44.7929 19.7138 44.3572 19.7138C43.9215 19.7138 43.5036 19.5408 43.1955 19.2327C42.8874 18.9246 42.7144 18.5067 42.7144 18.071V5.60859L29.148 19.175C31.8153 22.4383 33.1264 26.6018 32.8101 30.8046C32.4938 35.0074 30.5743 38.9279 27.4487 41.7552C24.323 44.5825 20.2303 46.1004 16.0169 45.9948C11.8036 45.8893 7.79193 44.1685 4.81171 41.1883C1.83149 38.2081 0.110671 34.1964 0.00515457 29.9831C-0.100362 25.7697 1.4175 21.677 4.24481 18.5513C7.07212 15.4257 10.9926 13.5062 15.1954 13.1899C19.3982 12.8736 23.5617 14.1847 26.825 16.852L40.3914 3.28564H27.929ZM16.4292 16.4282C12.9436 16.4282 9.60076 17.8129 7.13605 20.2776C4.67135 22.7423 3.28669 26.0851 3.28669 29.5708C3.28669 33.0564 4.67135 36.3992 7.13605 38.8639C9.60076 41.3287 12.9436 42.7133 16.4292 42.7133C19.9149 42.7133 23.2577 41.3287 25.7224 38.8639C28.1871 36.3992 29.5718 33.0564 29.5718 29.5708C29.5718 26.0851 28.1871 22.7423 25.7224 20.2776C23.2577 17.8129 19.9149 16.4282 16.4292 16.4282V16.4282Z" fill="black"/>
</svg>
