<svg width="113" height="85" viewBox="0 0 113 85" fill="none" xmlns="http://www.w3.org/2000/svg">
<path d="M63.5625 14.7289V10.625H67.0938C69.0448 10.625 70.625 9.0401 70.625 7.08333V3.54167C70.625 1.5849 69.0448 0 67.0938 0H45.9062C43.9552 0 42.375 1.5849 42.375 3.54167V7.08333C42.375 9.0401 43.9552 10.625 45.9062 10.625H49.4375V14.7289C25.489 18.1754 7.0625 38.7768 7.0625 63.75H105.938C105.938 38.7768 87.511 18.1754 63.5625 14.7289ZM109.469 70.8333H3.53125C1.58023 70.8333 0 72.4182 0 74.375V81.4583C0 83.4151 1.58023 85 3.53125 85H109.469C111.42 85 113 83.4151 113 81.4583V74.375C113 72.4182 111.42 70.8333 109.469 70.8333Z" fill="#FFEFD7"/>
</svg>
